<svg xmlns="http://www.w3.org/2000/svg" aria-hidden="true" style="position:absolute;width:0;height:0;overflow:hidden">
  <defs>
    <symbol id="icon-arrow-down">
      <circle cx="7" cy="7.5" r="7"/>
      <path d="M9.27588 8.31006L6.99963 10.3334L4.72338 8.31006" stroke="#173D33" stroke-width="0.833607" stroke-miterlimit="10" stroke-linecap="round" stroke-linejoin="round"/>
      <path d="M6.99951 4.66675L6.99951 10.2767" stroke="#173D33" stroke-width="0.833607" stroke-miterlimit="10" stroke-linecap="round" stroke-linejoin="round"/>
    </symbol>
    <symbol id="icon-arrow-left-slider" viewBox="0 0 32 32">
      <path stroke-linecap="round" stroke-linejoin="round" stroke-miterlimit="10" stroke-width="1.333" d="m12.759 7.905-8.093 8.093 8.093 8.093M27.333 15.999H4.893"/>
    </symbol>
    <symbol id="icon-arrow-right">
    <symbol id="icon-arrow-right-slider" viewBox="0 0 32 32">
      <path stroke-linecap="round" stroke-linejoin="round" stroke-miterlimit="10" stroke-width="1.333" d="m19.241 7.905 8.093 8.093-8.093 8.093M4.668 15.999h22.44"/>
    </symbol>
      <path d="M9.62012 4.45312L13.6668 8.49979L9.62012 12.5465" stroke="#173D33" stroke-miterlimit="10" stroke-linecap="round" stroke-linejoin="round"/>
      <path d="M2.33325 8.5H13.5533" stroke="#173D33" stroke-miterlimit="10" stroke-linecap="round" stroke-linejoin="round"/>    </symbol>
    <symbol id="icon-arrow-top-right" viewBox="0 0 30 32">
      <path  stroke-linecap="round" stroke-linejoin="round" stroke-miterlimit="10" stroke-width="1.882" d="M11.829 8.456h10.772v10.772M7.517 23.541 22.451 8.607" />
    </symbol>
     <symbol id="icon-arrow-top" >
      <path d="M3.95312 6.38L7.99979 2.33334L12.0465 6.38"  stroke-miterlimit="10" stroke-linecap="round" stroke-linejoin="round"/>
      <path d="M8 13.6666L8 2.44663"  stroke-miterlimit="10" stroke-linecap="round" stroke-linejoin="round"/>    
    </symbol>
    <symbol id="icon-close" viewBox="0 0 32 32">
      <path  stroke-linecap="round" stroke-linejoin="round" stroke-width="2.4" d="m9.333 9.333 13.333 13.333m-13.333.001L22.666 9.334" />
    </symbol>
    <symbol id="icon-email" viewBox="0 0 31 32">
      <path stroke-linecap="round" stroke-linejoin="round" stroke-miterlimit="10" stroke-width="1.92" d="M21.76 26.88H8.96c-3.84 0-6.4-1.92-6.4-6.4v-8.96c0-4.48 2.56-6.4 6.4-6.4h12.8c3.84 0 6.4 1.92 6.4 6.4v8.96c0 4.48-2.56 6.4-6.4 6.4z"/>
      <path stroke-linecap="round" stroke-linejoin="round" stroke-miterlimit="10" stroke-width="1.92" d="m21.76 12.16-4.006 3.2c-1.318 1.05-3.482 1.05-4.8 0l-3.994-3.2"/>
    </symbol>
    <symbol id="icon-innovation" viewBox="0 0 32 32">
      <path stroke-linecap="round" stroke-linejoin="round" stroke-width="2" d="M12.8 26.667h6.4c5.333 0 7.467-2.133 7.467-7.467v-6.4c0-5.333-2.133-7.467-7.467-7.467h-6.4c-5.333 0-7.467 2.133-7.467 7.467v6.4c0 5.333 2.133 7.467 7.467 7.467z"/>
      <path stroke-linecap="round" stroke-linejoin="round" stroke-width="2" d="M14 22.667h4c3.333 0 4.667-1.333 4.667-4.667v-4c0-3.333-1.333-4.667-4.667-4.667h-4c-3.333 0-4.667 1.333-4.667 4.667v4c0 3.333 1.333 4.667 4.667 4.667zM10.68 5.333V2.666M16 5.333V2.666M21.333 5.333V2.666M26.667 10.667h2.667M26.667 16h2.667M26.667 21.333h2.667M21.333 26.667v2.667M16.013 26.667v2.667M10.68 26.667v2.667M2.667 10.667h2.667M2.667 16h2.667M2.667 21.333h2.667"/>
      <path stroke-linecap="round" stroke-linejoin="round" stroke-width="2" d="m16 12.933-1.253 2.187c-.28.48-.053.88.507.88h1.493c.56 0 .787.4.507.88l-1.253 2.187"/>
    </symbol>
    <symbol id="icon-facebook" >
     <path d="M14 9.3V12.2H16.6C16.8 12.2 16.9 12.4 16.9 12.6L16.5 14.5C16.5 14.6 16.3 14.7 16.2 14.7H14V22H11V14.8H9.3C9.1 14.8 9 14.7 9 14.5V12.6C9 12.4 9.1 12.3 9.3 12.3H11V9C11 7.3 12.3 6 14 6H16.7C16.9 6 17 6.1 17 6.3V8.7C17 8.9 16.9 9 16.7 9H14.3C14.1 9 14 9.1 14 9.3Z" fill="inherit" />
     <path d="M15 22H9C4 22 2 20 2 15V9C2 4 4 2 9 2H15C20 2 22 4 22 9V15C22 20 20 22 15 22Z" stroke-width="1.5" stroke-linecap="round" stroke-linejoin="round"/>
    </symbol>
    <symbol id="icon-instagram" >
     <path d="M9 22H15C20 22 22 20 22 15V9C22 4 20 2 15 2H9C4 2 2 4 2 9V15C2 20 4 22 9 22Z" stroke-width="1.5" stroke-linecap="round" stroke-linejoin="round"/>
     <path d="M12 15.5C13.933 15.5 15.5 13.933 15.5 12C15.5 10.067 13.933 8.5 12 8.5C10.067 8.5 8.5 10.067 8.5 12C8.5 13.933 10.067 15.5 12 15.5Z" stroke-width="1.5" stroke-linecap="round" stroke-linejoin="round"/>
     <path d="M17.6361 7H17.6477" stroke-width="2" stroke-linecap="round" stroke-linejoin="round"/>
    </symbol>
    <symbol id="icon-logo" viewBox="0 0 215 32">
      <path fill="#97d28b" d="M170.352 17.712c-.874 0-1.538-.275-1.992-.824s-.68-1.264-.68-2.144c0-.405.05-.781.152-1.128.106-.352.262-.667.464-.944.208-.283.486-.504.832-.664s.744-.24 1.192-.24c.614 0 1.114.144 1.504.432.39.283.656.693.8 1.232l-.728.152c-.24-.763-.762-1.144-1.568-1.144-.602 0-1.072.205-1.408.616s-.504.981-.504 1.712c0 .736.17 1.304.512 1.704.342.395.822.592 1.44.592.518 0 .92-.128 1.208-.384.294-.256.44-.565.44-.928v-.6h-1.592v-.608h2.288v1.088c0 .592-.206 1.088-.616 1.488-.41.395-.992.592-1.744.592zm3.399-.112v-5.712h2.096c.603 0 1.075.147 1.416.44.342.288.512.691.512 1.208 0 .416-.114.763-.344 1.04-.229.272-.554.451-.976.536l1.392 2.488h-.848l-1.264-2.384h-1.248V17.6h-.736zm.736-3.048h1.336c.379 0 .672-.085.88-.256.214-.171.32-.408.32-.712 0-.699-.405-1.048-1.216-1.048h-1.32v2.016zm4.327 3.048v-5.712h3.856v.648h-3.12v1.848h2.584v.648h-2.584v1.92h3.128v.648h-3.864zm4.836 0v-5.712h3.856v.648h-3.12v1.848h2.584v.648h-2.584v1.92h3.128v.648h-3.864zm4.836 0v-5.712h.888l2.624 3.912.432.688h.08l-.008-1.096v-3.504h.712V17.6h-.848l-2.536-3.752-.552-.848h-.072l.008 1.088V17.6h-.728z" style="fill:var(--color2, #97d28b)"/>
      <path fill="#173d33" d="M194.597 17.6v-5.712h3.856v.648h-3.12v1.848h2.584v.648h-2.584v1.92h3.128v.648h-3.864zm4.836 0v-5.712h2.096c.602 0 1.074.147 1.416.44.342.288.512.691.512 1.208 0 .416-.114.763-.344 1.04-.23.272-.554.451-.976.536l1.392 2.488h-.848l-1.264-2.384h-1.248V17.6h-.736zm.736-3.048h1.336c.378 0 .672-.085.88-.256.214-.171.32-.408.32-.712 0-.699-.406-1.048-1.216-1.048h-1.32v2.016zm6.63 3.16c-.874 0-1.538-.275-1.992-.824s-.68-1.264-.68-2.144c0-.405.051-.781.152-1.128.107-.352.262-.667.464-.944.208-.283.486-.504.832-.664s.744-.24 1.192-.24c.614 0 1.115.144 1.504.432.39.283.656.693.8 1.232l-.728.152c-.24-.763-.762-1.144-1.568-1.144-.602 0-1.072.205-1.408.616s-.504.981-.504 1.712c0 .736.171 1.304.512 1.704.342.395.822.592 1.44.592.518 0 .92-.128 1.208-.384.294-.256.44-.565.44-.928v-.6h-1.592v-.608h2.288v1.088c0 .592-.205 1.088-.616 1.488-.41.395-.992.592-1.744.592zm4.707-.112v-2.024l-2.056-3.688h.856l1.56 2.968 1.568-2.968h.848l-2.04 3.688V17.6h-.736zm-43.458 7.2v-5.712h3.744v.648h-3.008v1.984h2.496v.656h-2.496V24.8h-.736zm6.797.112c-.848 0-1.512-.285-1.992-.856-.474-.571-.712-1.277-.712-2.12s.243-1.547.728-2.112c.491-.571 1.15-.856 1.976-.856s1.486.285 1.976.856c.491.571.736 1.275.736 2.112 0 .843-.24 1.549-.72 2.12-.474.571-1.138.856-1.992.856zm0-.656c.598 0 1.072-.211 1.424-.632.358-.421.536-.984.536-1.688 0-.699-.178-1.259-.536-1.68-.357-.432-.832-.648-1.424-.648-.581 0-1.053.216-1.416.648-.357.421-.536.981-.536 1.68 0 .704.176 1.267.528 1.688.358.421.832.632 1.424.632zm3.704.544v-5.712h2.096c.602 0 1.074.147 1.416.44.341.288.512.691.512 1.208 0 .416-.115.763-.344 1.04-.23.272-.555.451-.976.536l1.392 2.488h-.848l-1.264-2.384h-1.248V24.8h-.736zm.736-3.048h1.336c.378 0 .672-.085.88-.256.213-.171.32-.408.32-.712 0-.699-.406-1.048-1.216-1.048h-1.32v2.016zm6.163 3.048v-5.712h.736v5.056h3v.656h-3.736zm4.492 0v-5.712h.736V24.8h-.736zm2.118 0v-5.712h3.744v.648h-3.008v1.984h2.496v.656h-2.496V24.8h-.736zm4.555 0v-5.712h3.856v.648h-3.12v1.848h2.584v.648h-2.584v1.92h3.128v.648h-3.864zM35.788 25.143c-4.118 0-7.022-2.904-7.022-6.864s2.904-6.864 7.022-6.864 6.97 2.904 6.97 6.864v1.03H31.776c.396 2.086 1.98 3.221 4.013 3.221 1.531 0 2.64-.449 3.353-1.426h3.089c-1.003 2.455-3.379 4.039-6.442 4.039zm-3.934-8.237h7.894c-.502-1.901-2.059-2.878-3.96-2.878-1.954 0-3.432 1.003-3.934 2.878zm18.398 8.237c-4.118 0-7.022-2.904-7.022-6.864s2.904-6.864 7.022-6.864c3.511 0 6.098 2.112 6.758 5.148h-2.878c-.607-1.505-2.006-2.508-3.881-2.508-2.482 0-4.145 1.769-4.145 4.224s1.663 4.224 4.145 4.224c1.874 0 3.274-1.003 3.881-2.508h2.878c-.66 3.036-3.247 5.148-6.758 5.148zm14.258 0c-4.118 0-7.022-2.904-7.022-6.864s2.904-6.864 7.022-6.864 7.022 2.904 7.022 6.864-2.904 6.864-7.022 6.864zm0-2.64c2.482 0 4.118-1.769 4.118-4.224s-1.637-4.224-4.118-4.224c-2.482 0-4.145 1.769-4.145 4.224s1.663 4.224 4.145 4.224zm12.985 2.64c-3.3 0-5.386-1.769-5.465-4.171h2.878c.053.977.924 1.637 2.587 1.637 1.742 0 2.561-.739 2.561-1.637 0-1.109-1.241-1.241-2.772-1.452-2.112-.264-4.99-.66-4.99-3.749 0-2.614 2.033-4.356 5.174-4.356s5.095 1.795 5.148 4.066h-2.825c-.079-.898-.898-1.531-2.297-1.531-1.505 0-2.323.713-2.323 1.61 0 1.109 1.294 1.241 2.772 1.452 2.006.264 4.99.634 4.99 3.749 0 2.64-2.138 4.382-5.439 4.382zm12.979 0c-4.118 0-7.022-2.904-7.022-6.864s2.904-6.864 7.022-6.864 7.022 2.904 7.022 6.864-2.904 6.864-7.022 6.864zm0-2.64c2.482 0 4.118-1.769 4.118-4.224s-1.637-4.224-4.118-4.224c-2.482 0-4.145 1.769-4.145 4.224s1.663 4.224 4.145 4.224zm8.471 2.297V6.056h2.851V24.8h-2.851zm11.305.343c-3.854 0-6.442-2.218-6.442-6.6v-6.785h2.851v6.785c0 2.64 1.426 3.96 3.59 3.96s3.59-1.32 3.59-3.96v-6.785h2.851v6.785c0 4.356-2.587 6.6-6.442 6.6zm13.25 0c-3.142 0-5.28-1.742-5.28-5.333V7.138h2.851v4.62h6.943v2.587h-6.943v5.465c0 1.901.977 2.693 2.429 2.693s2.455-.766 2.455-2.693v-.317h2.825v.317c0 3.59-2.138 5.333-5.28 5.333zm8.172-15.233c-1.109 0-1.927-.845-1.927-1.954s.818-1.954 1.927-1.954 1.927.845 1.927 1.954-.818 1.954-1.927 1.954zM130.22 24.8V11.758h2.851V24.8h-2.851zm11.332.343c-4.118 0-7.022-2.904-7.022-6.864s2.904-6.864 7.022-6.864 7.022 2.904 7.022 6.864-2.904 6.864-7.022 6.864zm0-2.64c2.482 0 4.118-1.769 4.118-4.224s-1.637-4.224-4.118-4.224c-2.482 0-4.145 1.769-4.145 4.224s1.663 4.224 4.145 4.224zm8.022 2.297v-6.785c0-4.356 2.587-6.6 6.442-6.6s6.442 2.218 6.442 6.6V24.8h-2.851v-6.785c0-2.64-1.426-3.96-3.59-3.96s-3.59 1.32-3.59 3.96V24.8h-2.851zM17.064 21.447c-.052-.123-4.312-8.448-4.382-8.563-.147-.348-.365-.661-.641-.922a2.794 2.794 0 0 0-2.082-.758c-.381.022-.754.121-1.095.291s-.642.408-.886.698a2.712 2.712 0 0 0-.24 3.158c.052.123 4.13 8.092 4.2 8.206.052.123.113.242.183.357.147.348.365.661.641.922s.603.462.961.593a2.813 2.813 0 0 0 2.216-.126c.341-.17.642-.408.886-.698s.424-.627.53-.988a2.693 2.693 0 0 0-.289-2.17z" style="fill:var(--color3, inherit)"/>
      <path fill="#97d28b" d="M12.144 15.814c.261-.274.462-.599.591-.954a2.692 2.692 0 0 0-.151-2.183 2.757 2.757 0 0 0-1.723-1.378 2.803 2.803 0 0 0-3.021 1.074c-.092.096-7.01 8.504-7.086 8.612-.261.274-.462.599-.591.954a2.692 2.692 0 0 0 .151 2.183A2.757 2.757 0 0 0 2.037 25.5a2.82 2.82 0 0 0 2.197-.307c.325-.197.606-.458.824-.767.092-.096 7.01-8.504 7.086-8.612zM24.048 15.813c.261-.275.462-.599.591-.954a2.692 2.692 0 0 0-.151-2.183 2.757 2.757 0 0 0-1.723-1.378 2.802 2.802 0 0 0-3.021 1.074c-.092.096-7.01 8.504-7.086 8.612a2.732 2.732 0 0 0-.745 2.061c.026.376.13.742.306 1.076a2.757 2.757 0 0 0 1.723 1.378 2.802 2.802 0 0 0 3.021-1.074c.092-.096 7.01-8.504 7.086-8.612z" style="fill:var(--color2, #97d28b)"/>
    </symbol>
    <symbol id="icon-favicon_logo" viewBox="0 0 55 32">
      <path fill="#173d33" d="M37.919 22.771c-.115-.273-9.583-18.774-9.738-19.029-.327-.772-.812-1.47-1.425-2.049S25.416.665 24.62.376a6.266 6.266 0 0 0-4.925.28 6.159 6.159 0 0 0-1.968 1.55c-.541.645-.942 1.392-1.177 2.197a6.012 6.012 0 0 0 .641 4.822c.115.273 9.177 17.981 9.332 18.236.116.274.251.539.406.793.327.772.812 1.47 1.425 2.049s1.34 1.028 2.136 1.317a6.266 6.266 0 0 0 4.925-.28c.758-.378 1.427-.906 1.968-1.55s.942-1.393 1.177-2.197a6.01 6.01 0 0 0-.641-4.822z" style="fill:var(--color1, #173d33)"/>
      <path fill="#97d28b" d="M26.985 10.252c.58-.61 1.027-1.331 1.312-2.119a6.023 6.023 0 0 0-1.927-6.775C25.711.831 24.949.444 24.131.221S22.458-.057 21.618.06c-.84.117-1.646.404-2.369.842s-1.346 1.019-1.831 1.705c-.204.214-15.577 18.897-15.748 19.139-.58.61-1.027 1.331-1.312 2.119a6.006 6.006 0 0 0 .335 4.851c.391.742.933 1.397 1.592 1.924s1.421.914 2.239 1.137c.817.223 1.673.278 2.513.161s1.646-.404 2.369-.842a6.135 6.135 0 0 0 1.831-1.705c.204-.214 15.577-18.897 15.748-19.139zM53.439 10.252c.58-.61 1.027-1.331 1.312-2.119a6.006 6.006 0 0 0-.335-4.851 6.104 6.104 0 0 0-1.592-1.924C52.165.831 51.403.444 50.585.221S48.912-.057 48.072.06c-.84.117-1.646.404-2.369.842s-1.346 1.019-1.831 1.705c-.204.214-15.577 18.897-15.748 19.138-.58.61-1.027 1.332-1.312 2.119a6.004 6.004 0 0 0 .335 4.851 6.104 6.104 0 0 0 1.592 1.924c.659.527 1.421.914 2.239 1.137s1.673.278 2.513.161c.84-.117 1.646-.404 2.369-.842s1.346-1.019 1.831-1.705c.204-.214 15.577-18.897 15.748-19.139z" style="fill:var(--color2, #97d28b)"/>
    </symbol>
    <symbol id="icon-ecosolution" viewBox="0 0 216 32">
      <path d="M12.461 31.269c-6.589 0-11.236-4.646-11.236-10.982S5.871 9.305 12.461 9.305c6.589 0 11.151 4.646 11.151 10.982v1.647H6.04c.634 3.337 3.168 5.153 6.42 5.153 2.45 0 4.224-.718 5.364-2.281h4.942c-1.605 3.928-5.407 6.463-10.307 6.463zM6.167 18.09h12.63c-.803-3.041-3.295-4.604-6.336-4.604-3.126 0-5.491 1.605-6.294 4.604zm29.437 13.179c-6.589 0-11.236-4.646-11.236-10.982S29.014 9.305 35.604 9.305c5.618 0 9.757 3.379 10.813 8.237h-4.604c-.972-2.408-3.21-4.013-6.209-4.013-3.971 0-6.632 2.83-6.632 6.758s2.661 6.758 6.632 6.758c2.999 0 5.238-1.605 6.209-4.013h4.604c-1.056 4.858-5.196 8.237-10.813 8.237zm22.813 0c-6.589 0-11.236-4.646-11.236-10.982S51.827 9.305 58.417 9.305c6.589 0 11.236 4.646 11.236 10.982s-4.646 10.982-11.236 10.982zm0-4.224c3.971 0 6.589-2.83 6.589-6.758s-2.619-6.758-6.589-6.758c-3.971 0-6.632 2.83-6.632 6.758s2.661 6.758 6.632 6.758zm20.775 4.224c-5.28 0-8.617-2.83-8.744-6.674h4.604c.084 1.563 1.478 2.619 4.14 2.619 2.788 0 4.097-1.183 4.097-2.619 0-1.774-1.985-1.985-4.435-2.323-3.379-.422-7.983-1.056-7.983-5.998 0-4.182 3.252-6.97 8.279-6.97s8.152 2.872 8.237 6.505h-4.52c-.127-1.436-1.436-2.45-3.675-2.45-2.408 0-3.717 1.14-3.717 2.577 0 1.774 2.07 1.985 4.435 2.323 3.21.422 7.983 1.014 7.983 5.998 0 4.224-3.421 7.012-8.701 7.012zm20.767 0c-6.589 0-11.236-4.646-11.236-10.982S93.369 9.305 99.959 9.305c6.589 0 11.236 4.646 11.236 10.982s-4.646 10.982-11.236 10.982zm0-4.224c3.971 0 6.589-2.83 6.589-6.758s-2.619-6.758-6.589-6.758c-3.971 0-6.632 2.83-6.632 6.758s2.661 6.758 6.632 6.758zm13.552 3.675V.73h4.562v29.99h-4.562zm18.088.549c-6.168 0-10.307-3.548-10.307-10.56V9.853h4.562v10.856c0 4.224 2.282 6.336 5.745 6.336s5.745-2.112 5.745-6.336V9.853h4.562v10.856c0 6.97-4.14 10.56-10.307 10.56zm21.201 0c-5.027 0-8.448-2.788-8.448-8.532V2.462h4.562v7.392h11.109v4.14h-11.109v8.744c0 3.041 1.563 4.308 3.886 4.308s3.928-1.225 3.928-4.308v-.507h4.52v.507c0 5.745-3.421 8.532-8.448 8.532zm13.075-24.372c-1.774 0-3.084-1.352-3.084-3.126S164.1.645 165.875.645c1.774 0 3.084 1.352 3.084 3.126s-1.309 3.126-3.084 3.126zm-2.323 23.823V9.853h4.562V30.72h-4.562zm18.131.549c-6.589 0-11.236-4.646-11.236-10.982s4.646-10.982 11.236-10.982c6.589 0 11.236 4.646 11.236 10.982s-4.646 10.982-11.236 10.982zm0-4.224c3.971 0 6.589-2.83 6.589-6.758s-2.619-6.758-6.589-6.758c-3.971 0-6.632 2.83-6.632 6.758s2.661 6.758 6.632 6.758zm12.835 3.675V19.864c0-6.97 4.14-10.56 10.307-10.56s10.307 3.548 10.307 10.56V30.72h-4.562V19.864c0-4.224-2.281-6.336-5.745-6.336s-5.745 2.112-5.745 6.336V30.72h-4.562z"/>
    </symbol>
    <symbol id="icon-greenergy" viewBox="0 0 105 32">
      <path fill="#97d28b" d="M7.004 14.471c-1.944 0-3.419-.61-4.427-1.831S1.066 9.831 1.066 7.876c0-.901.113-1.736.338-2.507a6.949 6.949 0 0 1 1.031-2.098c.462-.628 1.079-1.12 1.849-1.476s1.653-.533 2.649-.533c1.363 0 2.477.32 3.342.96.865.628 1.458 1.541 1.778 2.738l-1.618.338C9.902 3.603 8.74 2.756 6.951 2.756c-1.339 0-2.382.456-3.129 1.369s-1.12 2.181-1.12 3.804c0 1.636.379 2.898 1.138 3.787.759.877 1.825 1.316 3.2 1.316 1.15 0 2.044-.284 2.684-.853.652-.569.978-1.256.978-2.062V8.784H7.164V7.433h5.084v2.418c0 1.316-.456 2.418-1.369 3.307-.913.877-2.204 1.316-3.876 1.316zm7.555-.249V1.529h4.658c1.339 0 2.388.326 3.147.978.759.64 1.138 1.535 1.138 2.684 0 .924-.255 1.695-.764 2.311-.51.604-1.233 1.001-2.169 1.191l3.093 5.529h-1.884l-2.809-5.298h-2.773v5.298H14.56zm1.635-6.773h2.969c.841 0 1.493-.19 1.956-.569.474-.379.711-.907.711-1.582 0-1.553-.901-2.329-2.702-2.329h-2.933v4.48zm9.615 6.773V1.529h8.569v1.44h-6.933v4.107h5.742v1.44h-5.742v4.267h6.951v1.44h-8.587zm10.748 0V1.529h8.569v1.44h-6.933v4.107h5.742v1.44h-5.742v4.267h6.951v1.44h-8.587zm10.747 0V1.529h1.973l5.831 8.693.96 1.529h.178l-.018-2.436V1.528h1.582v12.693h-1.884L50.29 5.883l-1.227-1.884h-.16l.018 2.418v7.804h-1.618z" style="fill:var(--color1, #97d28b)"/>
      <path fill="#173d33" d="M60.881 14.222V1.529h8.569v1.44h-6.933v4.107h5.742v1.44h-5.742v4.267h6.951v1.44h-8.587zm10.747 0V1.529h4.658c1.339 0 2.388.326 3.147.978.758.64 1.138 1.535 1.138 2.684 0 .924-.255 1.695-.764 2.311-.51.604-1.233 1.001-2.169 1.191l3.093 5.529h-1.884l-2.809-5.298h-2.773v5.298h-1.636zm1.636-6.773h2.969c.841 0 1.493-.19 1.956-.569.474-.379.711-.907.711-1.582 0-1.553-.901-2.329-2.702-2.329h-2.933v4.48zm14.735 7.022c-1.944 0-3.419-.61-4.427-1.831s-1.511-2.809-1.511-4.764c0-.901.113-1.736.338-2.507a6.949 6.949 0 0 1 1.031-2.098c.462-.628 1.078-1.12 1.849-1.476s1.653-.533 2.649-.533c1.363 0 2.477.32 3.342.96.865.628 1.458 1.541 1.778 2.738l-1.618.338c-.533-1.695-1.695-2.542-3.484-2.542-1.339 0-2.382.456-3.129 1.369s-1.12 2.181-1.12 3.804c0 1.636.379 2.898 1.138 3.787.758.877 1.825 1.316 3.2 1.316 1.15 0 2.044-.284 2.684-.853.652-.569.978-1.256.978-2.062V8.784h-3.538V7.433h5.084v2.418c0 1.316-.456 2.418-1.369 3.307-.913.877-2.204 1.316-3.876 1.316zm10.46-.249V9.724L93.89 1.528h1.902l3.467 6.596 3.484-6.596h1.884l-4.533 8.196v4.498h-1.636zm-96.575 16V17.529h8.32v1.44H3.52v4.409h5.547v1.458H3.52v5.387H1.884zm15.105.249c-1.884 0-3.36-.634-4.427-1.902-1.055-1.268-1.582-2.839-1.582-4.711s.539-3.437 1.618-4.693c1.09-1.268 2.554-1.902 4.391-1.902s3.301.634 4.391 1.902c1.09 1.268 1.636 2.833 1.636 4.693 0 1.873-.533 3.443-1.6 4.711-1.055 1.268-2.53 1.902-4.427 1.902zm0-1.458c1.327 0 2.382-.468 3.164-1.404.794-.936 1.191-2.187 1.191-3.751 0-1.553-.397-2.797-1.191-3.733-.794-.96-1.849-1.44-3.164-1.44-1.292 0-2.341.48-3.147 1.44-.794.936-1.191 2.181-1.191 3.733 0 1.564.391 2.815 1.173 3.751.794.936 1.849 1.404 3.164 1.404zm8.23 1.209V17.529h4.658c1.339 0 2.388.326 3.147.978.758.64 1.138 1.535 1.138 2.684 0 .924-.255 1.695-.764 2.311-.51.604-1.233 1.001-2.169 1.191l3.093 5.529h-1.884l-2.809-5.298h-2.773v5.298H25.22zm1.636-6.773h2.969c.841 0 1.493-.19 1.956-.569.474-.379.711-.907.711-1.582 0-1.553-.901-2.329-2.702-2.329h-2.933v4.48zm13.695 6.773V17.529h1.636v11.236h6.667v1.458h-8.302zm9.984 0V17.529h1.636v12.693h-1.636zm4.705 0V17.529h8.32v1.44h-6.684v4.409h5.547v1.458h-5.547v5.387h-1.636zm10.123 0V17.529h8.569v1.44h-6.933v4.107h5.742v1.44h-5.742v4.267h6.951v1.44h-8.587z" style="fill:var(--color2, #173d33)"/>
    </symbol>
    <symbol id="icon-map" viewBox="0 0 31 32">
      <path stroke-linecap="round" stroke-linejoin="round" stroke-width="1.92" d="M2.931 10.598v12.454c0 2.432 1.728 3.43 3.827 2.227l3.008-1.715c.653-.371 1.741-.41 2.419-.064l6.72 3.366c.678.333 1.766.307 2.419-.064l5.542-3.174c.704-.41 1.293-1.408 1.293-2.227V8.947c0-2.432-1.728-3.43-3.827-2.227l-3.008 1.715c-.653.371-1.741.41-2.419.064l-6.72-3.354c-.678-.333-1.766-.307-2.419.064L4.224 8.383c-.717.41-1.293 1.408-1.293 2.214zM10.957 5.76V22.4M20.134 9.113v17.126"/>
    </symbol>
    <symbol id="icon-menu" viewBox="0 0 30 32">
      <path stroke-linecap="round" stroke-width="1.882" d="M3.765 9.726h22.588M3.765 16h22.588M3.765 22.274h22.588"/>
    </symbol>
    <symbol id="icon-minus" viewBox="0 0 32 32">
      <path stroke-linecap="round" stroke-linejoin="round" stroke-width="1.714" d="M8 16h16"/>
    </symbol>
    <symbol id="icon-openness" viewBox="0 0 32 32">
      <path stroke-linecap="round" stroke-linejoin="round" stroke-width="2" d="M22.667 4H28v5.333M20 12l8-8M9.333 28H4v-5.333M12 20l-8 8M18.693 2.933A13.794 13.794 0 0 0 16 2.666c-7.36 0-13.333 5.973-13.333 13.333 0 .92.093 1.813.267 2.667M13.307 29.067c.867.173 1.773.267 2.693.267 7.36 0 13.333-5.973 13.333-13.333 0-.907-.093-1.8-.267-2.667"/>
    </symbol>
    <symbol id="icon-phone" viewBox="0 0 31 32">
      <path stroke-miterlimit="10" stroke-width="1.92" d="M28.122 24.102c0 .461-.102.934-.32 1.395s-.499.896-.87 1.306c-.627.691-1.318 1.19-2.099 1.51-.768.32-1.6.486-2.496.486-1.306 0-2.701-.307-4.173-.934s-2.944-1.472-4.403-2.534a36.8 36.8 0 0 1-4.198-3.584 36.287 36.287 0 0 1-3.571-4.186c-1.05-1.459-1.894-2.918-2.509-4.365-.614-1.459-.922-2.854-.922-4.186 0-.87.154-1.702.461-2.47a5.894 5.894 0 0 1 1.472-2.138c.819-.806 1.715-1.203 2.662-1.203.358 0 .717.077 1.037.23.333.154.627.384.858.717l2.97 4.186c.23.32.397.614.512.896.115.269.179.538.179.781 0 .307-.09.614-.269.909-.166.294-.41.602-.717.909l-.973 1.011a.684.684 0 0 0-.205.512c0 .102.013.192.038.294.038.102.077.179.102.256.23.422.627.973 1.19 1.638a43.15 43.15 0 0 0 1.856 2.022 38.764 38.764 0 0 0 2.035 1.882c.666.563 1.216.947 1.651 1.178.064.026.141.064.23.102a.892.892 0 0 0 .32.051.704.704 0 0 0 .525-.218l.973-.96c.32-.32.627-.563.922-.717.294-.179.589-.269.909-.269.243 0 .499.051.781.166s.576.282.896.499l4.237 3.008c.333.23.563.499.704.819.128.32.205.64.205.998z"/>
    </symbol>
    <symbol id="icon-plus" viewBox="0 0 32 32">
      <path fill="none" stroke="#97d28b" stroke-linecap="round" stroke-linejoin="round" stroke-width="1.714" d="M8 16h16M16 24V8" style="stroke:var(--color2, #97d28b)"/>
    </symbol>
    <symbol id="icon-quality" viewBox="0 0 32 32">
      <path stroke-linecap="round" stroke-linejoin="round" stroke-miterlimit="10" stroke-width="2" d="M11.56 18.667H5.333a2.675 2.675 0 0 0-2.667 2.667v8h8.893V18.667z"/>
      <path stroke-linecap="round" stroke-linejoin="round" stroke-miterlimit="10" stroke-width="2" d="M17.773 13.333h-3.56A2.675 2.675 0 0 0 11.546 16v13.333h8.893V16a2.666 2.666 0 0 0-2.667-2.667zM26.667 22.667H20.44v6.667h8.893v-4c0-1.467-1.2-2.667-2.667-2.667z"/>
      <path stroke-linecap="round" stroke-linejoin="round" stroke-width="2" d="m16.693 2.76.707 1.413c.093.2.347.387.56.413l1.28.213c.813.133 1.013.733.427 1.307l-1 1c-.173.173-.267.493-.213.72l.28 1.227c.227.973-.293 1.347-1.147.84l-1.2-.707a.826.826 0 0 0-.787 0l-1.2.707c-.853.507-1.373.133-1.147-.84l.28-1.227c.053-.227-.04-.56-.213-.72l-.987-.987c-.587-.587-.4-1.173.427-1.307l1.28-.213a.89.89 0 0 0 .56-.413l.707-1.413c.387-.773 1-.773 1.387-.013z"/>
    </symbol>
    <symbol id="icon-responsibility" viewBox="0 0 32 32">
      <path stroke-linecap="round" stroke-linejoin="round" stroke-width="2" d="M29.333 16C29.333 8.64 23.36 2.667 16 2.667S2.667 8.64 2.667 16 8.64 29.333 16 29.333"/>
      <path stroke-linecap="round" stroke-linejoin="round" stroke-width="2" d="M10.667 4H12a37.898 37.898 0 0 0 0 24h-1.333M20 4a38.083 38.083 0 0 1 1.947 12"/>
      <path stroke-linecap="round" stroke-linejoin="round" stroke-width="2" d="M4 21.333V20a38.083 38.083 0 0 0 12 1.947M4 11.999a37.898 37.898 0 0 1 24 0"/>
      <path stroke-linecap="round" stroke-linejoin="round" stroke-miterlimit="10" stroke-width="2" d="m25.613 20.987-4.72 4.72a1.64 1.64 0 0 0-.4.787l-.253 1.8c-.093.653.36 1.107 1.013 1.013l1.8-.253c.253-.04.613-.213.787-.4l4.72-4.72c.813-.813 1.2-1.76 0-2.96-1.187-1.187-2.133-.8-2.947.013z"/>
      <path stroke-linecap="round" stroke-linejoin="round" stroke-miterlimit="10" stroke-width="2" d="M24.933 21.667c.4 1.44 1.52 2.56 2.96 2.96"/>
    </symbol>
  </defs>
</svg>